<svg xmlns="http://www.w3.org/2000/svg" width="533.333" height="533.333" preserveAspectRatio="xMidYMid meet" version="1.0" viewBox="0 0 400 400"><metadata>Created by potrace 1.11, written by Peter Selinger 2001-2013</metadata><g fill="#000" stroke="none"><path d="M1944 3942 c-57 -54 -226 -208 -266 -244 -17 -14 -171 -155 -202 -183 -25 -24 -253 -230 -273 -248 l-21 -19 0 144 c0 78 0 151 -1 161 -1 16 -15 17 -193 15 l-192 -3 0 -333 -1 -333 -45 -42 c-74 -69 -281 -260 -310 -287 -145 -134 -226 -208 -243 -222 -19 -17 -15 -18 115 -18 l135 0 0 -1162 0 -1163 604 -3 604 -2 0 605 0 605 357 0 358 0 0 -605 0 -605 605 0 605 0 0 1165 0 1165 130 0 129 0 -51 48 c-29 26 -59 54 -68 62 -9 8 -58 53 -110 100 -51 47 -108 99 -126 115 -17 17 -72 66 -120 110 -49 44 -95 87 -104 95 -9 8 -85 78 -170 155 -85 77 -164 149 -176 160 -30 29 -199 183 -222 203 -11 10 -61 55 -112 102 -51 47 -107 98 -124 113 -17 16 -74 68 -126 116 -136 125 -320 291 -323 291 -1 0 -29 -26 -63 -58z" transform="translate(0.000000,400.000000) scale(0.100000,-0.100000)"/></g></svg>